<svg xmlns="http://www.w3.org/2000/svg" viewBox="0 0 1285.2 946.39"><defs><style>.cls-1{fill:none;}.cls-2{fill:#86bf8f;}</style></defs><g id="Layer_2" data-name="Layer 2"><g id="Layer_1-2" data-name="Layer 1"><rect class="cls-1" width="1285.2" height="946.39"/><path class="cls-2" d="M784.85,466.19a14.83,14.83,0,0,1-2.27-7.27A19.77,19.77,0,0,0,784.85,466.19Z"/><path class="cls-2" d="M841,458.36a15.07,15.07,0,0,1-2.7,8.62A19.83,19.83,0,0,0,841,458.36Z"/><path class="cls-2" d="M841,458.36a19.83,19.83,0,0,1-2.7,8.62v0c-7.25,13.71-26.53,30.77-26.53,30.77s-20-17.7-26.93-31.54l0,0a19.77,19.77,0,0,1-2.27-7.27,10.93,10.93,0,0,1,0-1.28,15,15,0,0,1,29.11-4.54A15.14,15.14,0,0,1,841,457.64C841,457.88,841,458.12,841,458.36Z"/></g></g></svg>