<svg xmlns="http://www.w3.org/2000/svg" viewBox="0 0 1285.2 946.39"><defs><style>.cls-1{fill:none;}.cls-2{fill:#dadada;}</style></defs><g id="Layer_2" data-name="Layer 2"><g id="Layer_1-2" data-name="Layer 1"><rect class="cls-1" width="1285.2" height="946.39"/><rect class="cls-2" x="482.88" y="125.74" width="114.28" height="22.25" rx="7.62"/><rect class="cls-2" x="377.55" y="125.74" width="88" height="104.78" rx="15.93"/><rect class="cls-2" x="606.05" y="125.74" width="70.22" height="22.25" rx="7.62"/><rect class="cls-2" x="482.88" y="161.24" width="222.72" height="22.25" rx="7.62"/><rect class="cls-2" x="686.02" y="125.74" width="47.06" height="22.25" rx="7.62"/><path class="cls-2" d="M784.35,148.72a14.83,14.83,0,0,1-2.27-7.27A19.77,19.77,0,0,0,784.35,148.72Z"/><path class="cls-2" d="M840.54,140.89a15.07,15.07,0,0,1-2.7,8.62A19.83,19.83,0,0,0,840.54,140.89Z"/><path class="cls-2" d="M840.54,140.89a19.83,19.83,0,0,1-2.7,8.62s0,0,0,0c-7.25,13.71-26.53,30.77-26.53,30.77s-20-17.7-26.93-31.54l0,0a19.77,19.77,0,0,1-2.27-7.27,10.93,10.93,0,0,1,0-1.28,15,15,0,0,1,29.11-4.54,15.14,15.14,0,0,1,29.33,4.54C840.53,140.41,840.54,140.65,840.54,140.89Z"/><rect class="cls-2" x="483.38" y="286.57" width="114.28" height="22.25" rx="7.62"/><rect class="cls-2" x="378.05" y="286.57" width="88" height="104.78" rx="15.93"/><rect class="cls-2" x="606.55" y="286.57" width="70.22" height="22.25" rx="7.62"/><rect class="cls-2" x="483.38" y="322.06" width="222.72" height="22.25" rx="7.62"/><rect class="cls-2" x="686.52" y="286.57" width="47.06" height="22.25" rx="7.62"/><path class="cls-2" d="M784.85,466.19a14.83,14.83,0,0,1-2.27-7.27A19.77,19.77,0,0,0,784.85,466.19Z"/><path class="cls-2" d="M841,458.36a15.07,15.07,0,0,1-2.7,8.62A19.83,19.83,0,0,0,841,458.36Z"/><path class="cls-2" d="M841,458.36a19.83,19.83,0,0,1-2.7,8.62v0c-7.25,13.71-26.53,30.77-26.53,30.77s-20-17.7-26.93-31.54l0,0a19.77,19.77,0,0,1-2.27-7.27,10.93,10.93,0,0,1,0-1.28,15,15,0,0,1,29.11-4.54A15.14,15.14,0,0,1,841,457.64C841,457.88,841,458.12,841,458.36Z"/><rect class="cls-2" x="483.38" y="443.21" width="114.28" height="22.25" rx="7.62"/><rect class="cls-2" x="378.05" y="443.21" width="88" height="104.78" rx="15.93"/><rect class="cls-2" x="606.55" y="443.21" width="70.22" height="22.25" rx="7.62"/><rect class="cls-2" x="483.38" y="478.71" width="222.72" height="22.25" rx="7.62"/><rect class="cls-2" x="686.52" y="443.21" width="47.06" height="22.25" rx="7.62"/><path class="cls-2" d="M784.35,309a14.83,14.83,0,0,1-2.27-7.27A19.77,19.77,0,0,0,784.35,309Z"/><path class="cls-2" d="M840.54,301.21a15.07,15.07,0,0,1-2.7,8.62A19.83,19.83,0,0,0,840.54,301.21Z"/><path class="cls-2" d="M840.54,301.21a19.83,19.83,0,0,1-2.7,8.62s0,0,0,0c-7.25,13.71-26.53,30.77-26.53,30.77s-20-17.7-26.93-31.54l0,0a19.77,19.77,0,0,1-2.27-7.27,10.93,10.93,0,0,1,0-1.28A15,15,0,0,1,811.19,296a15.14,15.14,0,0,1,29.33,4.54C840.53,300.73,840.54,301,840.54,301.21Z"/></g></g></svg>