<svg xmlns="http://www.w3.org/2000/svg" xmlns:xlink="http://www.w3.org/1999/xlink" viewBox="0 0 414.76 663.52"><defs><style>.cls-1{fill:#f0ebc0;}.cls-2{fill:#bd555f;}.cls-3{fill:#403326;}.cls-4{fill:#d9b8ad;}.cls-5{fill:#dadada;}.cls-6{fill:#6d6d6d;}.cls-7{fill:#8c3f52;}.cls-8{fill:url(#linear-gradient);}.cls-19,.cls-20,.cls-21,.cls-25,.cls-26,.cls-9{fill:none;stroke-miterlimit:10;}.cls-9{stroke:url(#linear-gradient-2);}.cls-10{fill:#82b5d9;}.cls-11{fill:#6da18a;}.cls-12{fill:url(#linear-gradient-3);}.cls-13{fill:#86bf8f;}.cls-14{fill:#c98f8f;}.cls-15{fill:url(#linear-gradient-4);}.cls-16{fill:#574639;}.cls-17{fill:url(#linear-gradient-5);}.cls-18{fill:#f5f5f5;}.cls-19,.cls-20,.cls-21,.cls-25,.cls-26{stroke-linecap:round;}.cls-19,.cls-20{stroke-width:0.92px;}.cls-19{stroke:url(#radial-gradient);}.cls-20{stroke:url(#radial-gradient-2);}.cls-21{stroke:#5b534c;}.cls-22{fill:url(#linear-gradient-6);}.cls-23{fill:url(#linear-gradient-7);}.cls-24{fill:url(#linear-gradient-8);}.cls-25{stroke-width:2px;stroke:url(#radial-gradient-3);}.cls-26{stroke:#574639;stroke-width:3px;}</style><linearGradient id="linear-gradient" x1="237.42" y1="332.91" x2="237.42" y2="624.67" gradientUnits="userSpaceOnUse"><stop offset="0" stop-color="#82b5d9"/><stop offset="0.59" stop-color="#6ea1d0"/><stop offset="1" stop-color="#69c"/></linearGradient><linearGradient id="linear-gradient-2" x1="218.6" y1="474.07" x2="218.6" y2="612.57" gradientUnits="userSpaceOnUse"><stop offset="0" stop-color="#82b5d9"/><stop offset="0.37" stop-color="#7db0d7"/><stop offset="0.82" stop-color="#6ea1d0"/><stop offset="1" stop-color="#69c"/></linearGradient><linearGradient id="linear-gradient-3" x1="231.87" y1="257.16" x2="309.58" y2="226.04" gradientUnits="userSpaceOnUse"><stop offset="0" stop-color="#6da18a"/><stop offset="0.61" stop-color="#86bf8f"/></linearGradient><linearGradient id="linear-gradient-4" x1="219.32" y1="114.88" x2="202.98" y2="13.68" gradientUnits="userSpaceOnUse"><stop offset="0.48" stop-color="#d9b8ad"/><stop offset="0.64" stop-color="#d2a6a0"/><stop offset="0.85" stop-color="#cb9593"/><stop offset="1" stop-color="#c98f8f"/></linearGradient><linearGradient id="linear-gradient-5" x1="228.07" y1="84.07" x2="240.3" y2="85.94" gradientUnits="userSpaceOnUse"><stop offset="0" stop-color="#d6b0a7"/><stop offset="0.15" stop-color="#d4aba3"/><stop offset="1" stop-color="#c98f8f"/></linearGradient><radialGradient id="radial-gradient" cx="214.68" cy="97.35" r="2.57" gradientUnits="userSpaceOnUse"><stop offset="0" stop-color="#c98f8f"/><stop offset="0.33" stop-color="#ca9392"/><stop offset="0.62" stop-color="#cf9d9a"/><stop offset="0.9" stop-color="#d6b0a7"/><stop offset="1" stop-color="#d9b8ad"/></radialGradient><radialGradient id="radial-gradient-2" cx="224.26" cy="104.27" r="4.08" xlink:href="#radial-gradient"/><linearGradient id="linear-gradient-6" x1="149.84" y1="240.08" x2="184.27" y2="261.62" gradientUnits="userSpaceOnUse"><stop offset="0" stop-color="#6da18a"/><stop offset="0" stop-color="#6da18a"/><stop offset="0.26" stop-color="#7bb28d"/><stop offset="0.54" stop-color="#83bc8e"/><stop offset="0.89" stop-color="#86bf8f"/></linearGradient><linearGradient id="linear-gradient-7" x1="91.55" y1="377.26" x2="111.71" y2="407.21" gradientUnits="userSpaceOnUse"><stop offset="0" stop-color="#d9b8ad"/><stop offset="0.3" stop-color="#d7b4aa"/><stop offset="0.63" stop-color="#d2a7a0"/><stop offset="0.97" stop-color="#ca9191"/><stop offset="1" stop-color="#c98f8f"/></linearGradient><linearGradient id="linear-gradient-8" x1="226.52" y1="374.8" x2="246.96" y2="405.17" gradientTransform="matrix(-1, 0, 0, 1, 532.89, 0)" xlink:href="#linear-gradient-7"/><radialGradient id="radial-gradient-3" cx="146.88" cy="364.65" r="11.83" gradientUnits="userSpaceOnUse"><stop offset="0.18" stop-color="#69c"/><stop offset="1" stop-color="#82b5d9"/></radialGradient></defs><g id="Layer_2" data-name="Layer 2"><g id="Layer_1-2" data-name="Layer 1"><circle class="cls-1" cx="207.38" cy="284.67" r="207.38"/><path class="cls-2" d="M215.72,632.07s-10.93,3.7-10.92,21.87a3.82,3.82,0,0,0,2.42,3.56c6.07,2.38,24.79,8,66,.18,2.95-.55,3.95-3.35,2-5.31-5.73-5.72-18.54-15.07-43.62-19.38Z"/><path class="cls-2" d="M145,659.12c-2.36-1-4.07-4.36-3.24-6.8,2-6,5.14-15.24,17-20.08,16-6.55,30.16,4.26,29.53,22.56a5.07,5.07,0,0,1-3,4.5A49.38,49.38,0,0,1,145,659.12Z"/><path class="cls-3" d="M245.83,71s12.43-2.11,10.71-27.55S232.63,50.72,245.83,71Z"/><path class="cls-4" d="M158.26,614.74V634.4s7.67,10.67,17.67,0l1.33-19.66Z"/><path class="cls-5" d="M158.26,628.32v6.08s7.67,10.67,17.67,0l.4-5.92a44.89,44.89,0,0,1-9,1A33.34,33.34,0,0,1,158.26,628.32Z"/><path class="cls-6" d="M158.26,629.82a30.32,30.32,0,0,0,18,.26l-.08,1.23s-6.77,4-17.88,0Z"/><path class="cls-4" d="M214.55,614.74V634.4s7.67,10.67,17.67,0l1.33-19.66Z"/><path class="cls-5" d="M214.55,628.32v6.08s7.67,10.67,17.67,0l.4-5.92a44.85,44.85,0,0,1-9,1A33.38,33.38,0,0,1,214.55,628.32Z"/><path class="cls-6" d="M214.55,629.82a30.32,30.32,0,0,0,18,.26l-.08,1.23s-6.77,4-17.88,0Z"/><path class="cls-7" d="M154.93,647l4.54-11.22s8.55-3.75,14.81.49l-2,12S160.07,652.12,154.93,647Z"/><path class="cls-8" d="M265.59,332.91s26.43,109.27-16.07,289c0,0-2.71,1.74-17.34,2.64-12.17.75-24.48-3-24.48-3s-11.46-167.31-4.12-282.89Z"/><line class="cls-9" x1="218.26" y1="474.07" x2="218.95" y2="612.57"/><path class="cls-10" d="M147.53,330.74s-20,55.66-8.05,107.66S149,622.52,149,622.52A81.57,81.57,0,0,0,170.6,626c9.5,0,20.61-3,20.61-3s37-173.33,38.14-224.11c1.05-45.21-4.38-65.94-4.38-65.94Z"/><path class="cls-11" d="M268.26,346.11c-27.78,17.5-96.74,12.89-124.67-.72-3.89-1.9.45-14.65.45-14.65H268.26S271.93,343.8,268.26,346.11Z"/><path class="cls-12" d="M226.77,135.45S289.9,141,310,341.39a10.46,10.46,0,0,1-5.11,10.11c-4.33,2.51-11.05,3.63-19.74-3.49C269.15,334.9,250,208.9,226.77,135.45Z"/><path class="cls-13" d="M196.7,129.22s-36,1-56,27.63c-17.9,23.87-42,135.93-47.33,161.51-.79,3.79-3.29,21.54-2.22,25.27,1.13,3.95,6.57,2,10.78-.23,5.08-2.63,9.78,2.74,12.22,4,4,2.06,4.38-1.1,9.78-9.33,22.35-34.07,35.61-140.33,35.61-140.33s-24.79,123.94-21.07,135.17c3.53,10.69,94.3,17.4,127.4,5.29A13.88,13.88,0,0,0,275,324.8c-.67-25-4.65-102.81-28.21-165.59C236.43,131.61,213.47,126.47,196.7,129.22Z"/><path class="cls-11" d="M116.39,341.07s-3.3-2.5-10.21-3.67a29.16,29.16,0,0,0-11,.17s-5.08,12.79-2.8,16.53c3.26,5.36,16.51,6.39,20.92,3.73C117,355.58,116.39,341.07,116.39,341.07Z"/><path class="cls-4" d="M192.74,113.4s1.64,13.13-2.87,19.07,26.46,19.7,33.22,5.13a43.35,43.35,0,0,1-2.66-21.74C222.07,103.55,191.92,101.71,192.74,113.4Z"/><path class="cls-14" d="M220.06,121.94a47.89,47.89,0,0,0,2,12.95s-11.45-11.52-19.82-14.16C194.06,118.14,226,110.41,220.06,121.94Z"/><path class="cls-15" d="M170.89,88.07s10,37.84,48.93,33.89c28.37-2.87,33.62-18.7,34.32-27.74a17.5,17.5,0,0,0-1.51-8.4c-2-4.64-5.14-14.93-1.64-29.36,4.88-20.08-8.8-36.72-8.8-36.72l-71.72,8.6Z"/><path class="cls-16" d="M187.14,78l-2.4-25.42-6.28-4.2s21.69-10.54,33.7,8.08c0,0,2.49-1.34,0-10.14,0,0,11.67,1.15,16.65,12a8,8,0,0,0,1.05-8.22s23.81,10.71,31.27-12.44,3.39-33.63-5.38-35.26c-14.88-2.76-36.64,15-59.75,9.83-20.85-4.69-32.09,5.2-38.09,13.47-1.26,1.74-1.43,5.74-2.84,9.1-1.32,3.12-3.91,5.6-4.3,7.55C149,51.09,148,64.52,160.52,73.67L176,71.19l2.85,7.94Z"/><circle class="cls-4" cx="168.84" cy="79.13" r="10.62"/><circle class="cls-17" cx="231.19" cy="84.54" r="6.19"/><path class="cls-18" d="M236.74,99.09V102s-14.82,3.32-20.93-2.84a.46.46,0,0,1,.49-.75C219.15,99.47,226.37,101.4,236.74,99.09Z"/><path class="cls-16" d="M155,36.48s-9-2.62-12.46,7.06c0,0,5.75-7.15,11.91-2.21S155,36.48,155,36.48Z"/><path class="cls-16" d="M160.29,36.88l-3.47.64s-8.32-2.72-6-14.63a11.68,11.68,0,0,0,9.5,10.47C169.44,35.44,160.29,36.88,160.29,36.88Z"/><path class="cls-14" d="M163,80.45s-1.28-7.51,5.8-7.41C168.84,73,164,76.3,163,80.45Z"/><path class="cls-19" d="M212.34,99.18s-.43-4,4.69-3.65"/><path class="cls-20" d="M219.47,103.6c-2.44,0,6.65,1.82,10,1.23"/><path class="cls-16" d="M197.75,13.75S215,14.26,221.87,0c0,0,0,21.91-19.26,20.78S197.75,13.75,197.75,13.75Z"/><path class="cls-21" d="M203.6,72.52c.09-.29,6-3.4,12.08-1.27"/><path class="cls-21" d="M235.19,71.26c.25-.18,5.08-2.13,9,.36"/><path class="cls-22" d="M167.69,190.07s-17.87,72.2-23.54,96.33C136.84,317.5,231.4,324.57,167.69,190.07Z"/><path class="cls-23" d="M96,353.52s-4.22,22.66-15.34,40.22c0,0,0,8.22,4.45,12.44l-.45,9.45s8,3.89,19.41,2l7.15,3.11s7,1.22,4.56-5.22l-11.71-8.78a58.91,58.91,0,0,1,0-19.57s3.15,3.79,3.15,7.79,3.22,9.11,8.22,1.78-5.78-23.45-5.78-23.45l.34-17.11S102.93,347.4,96,353.52Z"/><path class="cls-11" d="M286.09,342.57s1.84-3.67,9.75-5c7.48-1.26,11.75.67,11.75.67s4.35,12.12,2.07,15.86c-3.26,5.36-16.51,6.39-20.93,3.73C285,355.58,286.09,342.57,286.09,342.57Z"/><path class="cls-24" d="M306,353.52a100.92,100.92,0,0,0,7.77,33.32,18.57,18.57,0,0,1,.94,12.45c-2.05,6.42-7.26,15.45-12.77,19.45-2.15,1.55-5.18,1.29-7.34.89,0,0-8.44,6.55-6,.11L296,407.58a18.33,18.33,0,0,0,2.66-8.37,52.79,52.79,0,0,0-.72-12s-3.15,3.79-3.15,7.79-3.22,9.11-8.22,1.78,5.77-23.45,5.77-23.45L292,356.18S299.1,347.4,306,353.52Z"/><path class="cls-25" d="M141.05,378.93c-.13-.19,11.07-8.29,11.67-28.56"/><path class="cls-7" d="M229.37,635.49l.56,1.79,20.33,4.66s3.9-.55,4.12-2.8c0,0-14.53-5.13-19.21-6.44-3.35-.94-2.11-2.15-3.13-.18C231.63,633.3,229.11,634.65,229.37,635.49Z"/><path class="cls-26" d="M201.8,63c.09-.3,7.39-4.4,13.88-.86"/><path class="cls-26" d="M233.39,62.16a9.53,9.53,0,0,1,10.2,0"/></g></g></svg>