<svg xmlns="http://www.w3.org/2000/svg" viewBox="0 0 56.4 91.18"><defs><style>.cls-1{isolation:isolate;}.cls-2{fill:#64b082;}</style></defs><g id="Layer_2" data-name="Layer 2"><g id="Layer_1-2" data-name="Layer 1"><g id="_3" data-name=" 3" class="cls-1"><g class="cls-1"><path class="cls-2" d="M1.48,77.86c0-4.93.35-8.44,1-10.51s2.36-3.11,5-3.11H20.72V77.86Zm0,20.72q0-7.39,1-10.51C3.21,86,4.88,85,7.55,85H22.8V98.58Zm37.3,28.57a33.55,33.55,0,0,1-11-1.63,15.87,15.87,0,0,1-7.92-6.14q-3.18-4.51-4.74-12.88a124.42,124.42,0,0,1-1.55-21.83q0-15.54,2.66-25.16t7-14.73a22.77,22.77,0,0,1,9.48-7,29.26,29.26,0,0,1,10-1.85,33,33,0,0,1,9.47,1,9.27,9.27,0,0,1,4.44,2.51,4.62,4.62,0,0,1,1.19,2.81,33.24,33.24,0,0,1-.59,6.3,11.9,11.9,0,0,1-1.78,4.66,11.18,11.18,0,0,0-3.7-1.56,19.27,19.27,0,0,0-4.89-.66,12,12,0,0,0-5,1.26A13.15,13.15,0,0,0,36.86,57a29.54,29.54,0,0,0-3.92,9.84,73.64,73.64,0,0,0-1.56,16.8q0,8.88.52,14.29a28.19,28.19,0,0,0,1.78,8.29A7,7,0,0,0,37,110.06a12.32,12.32,0,0,0,5.18,1,43.4,43.4,0,0,0,6.51-.45,16.41,16.41,0,0,0,5-1.48,25.53,25.53,0,0,1,1.41,4.22,24.44,24.44,0,0,1,.67,6,5,5,0,0,1-2.08,3.7,16.57,16.57,0,0,1-5.92,3A30.76,30.76,0,0,1,38.78,127.15ZM25.61,77.86V64.24H50.92q0,7.26-1,10.44c-.69,2.12-2.36,3.18-5,3.18Zm.59,20.72V85H46.78q0,7.25-1,10.43t-5,3.18Z" transform="translate(-1.48 -35.97)"/></g></g></g></g></svg>