<svg xmlns="http://www.w3.org/2000/svg" viewBox="0 0 277.35 485.6"><defs><style>.cls-1{fill:none;}.cls-2{isolation:isolate;}.cls-3{fill:#aad795;}</style></defs><g id="Layer_2" data-name="Layer 2"><g id="Layer_1-2" data-name="Layer 1"><g id="Introphone"><rect class="cls-1" width="277.35" height="485.6" rx="31.84"/><g id="_" data-name=" "><g class="cls-2"><path class="cls-3" d="M58.31,227.23a12.43,12.43,0,0,1-3.16-.34,5.79,5.79,0,0,1-1.84-.77c-.4-.29-.61-.58-.61-.86a6.1,6.1,0,0,1,.15-1c.1-.49.23-1,.4-1.57a5.61,5.61,0,0,1,.54-1.29,5.79,5.79,0,0,0,1.78.83,8.36,8.36,0,0,0,2.48.34A3.37,3.37,0,0,0,60.1,222a2.17,2.17,0,0,0,.8-1.88,3.49,3.49,0,0,0-.38-1.69,11.89,11.89,0,0,0-1.38-1.86l-4.68-5.18A7.06,7.06,0,0,1,53,209a6.9,6.9,0,0,1-.38-2.12,5.2,5.2,0,0,1,1.86-4.32,8.29,8.29,0,0,1,5.29-1.48,20.38,20.38,0,0,1,3.78.27,5.82,5.82,0,0,1,2,.65c.39.25.58.48.58.71a7.12,7.12,0,0,1-.23,1.42,4.13,4.13,0,0,1-.9,1.75,5.44,5.44,0,0,0-1.42-.46,10.6,10.6,0,0,0-2.3-.25,8.1,8.1,0,0,0-2.46.31,1.24,1.24,0,0,0-.92,1.28,3.36,3.36,0,0,0,.27,1.42,7.24,7.24,0,0,0,1.11,1.55l4.93,5.35a7.15,7.15,0,0,1,1.44,2.27,7.65,7.65,0,0,1,.48,2.78,9.25,9.25,0,0,1-.65,3.43,5.3,5.3,0,0,1-2.34,2.63A9.53,9.53,0,0,1,58.31,227.23ZM56.93,232v-6.14h4.26v4.43a1.34,1.34,0,0,1-1.09,1.42A13.23,13.23,0,0,1,56.93,232Zm.83-28.21v-6a1.41,1.41,0,0,1,1.11-1.47,11.62,11.62,0,0,1,3.15-.33v8Z"/></g></g></g></g></g></svg>