<svg xmlns="http://www.w3.org/2000/svg" viewBox="0 0 277.35 485.6"><defs><style>.cls-1,.cls-3,.cls-5,.cls-6{fill:none;}.cls-2{fill:#a0ddd3;}.cls-3,.cls-5,.cls-6{stroke:#fff;stroke-miterlimit:10;}.cls-3,.cls-6{stroke-width:6.31px;}.cls-4,.cls-7{fill:#fff;}.cls-5,.cls-6{stroke-linecap:round;}.cls-5{stroke-width:2.1px;}.cls-7{font-size:37.96px;font-family:TitanOne, Titan One;}</style></defs><g id="Layer_2" data-name="Layer 2"><g id="Layer_1-2" data-name="Layer 1"><g id="DownloadPhone"><rect class="cls-1" width="277.35" height="485.6" rx="31.84"/><g id="a"><rect class="cls-2" x="38.91" y="198.2" width="199.53" height="94.78" rx="12"/><g id="Logo"><path id="cup" class="cls-3" d="M144.13,226.47c-8.6-11,68.79-11.15,60.06-.72-4.06,4.85-3.55,22.31-3.55,22.31a26,26,0,0,1-26,26h0a26,26,0,0,1-26-26h0S148,231.46,144.13,226.47Z"/><path id="small-splash" class="cls-4" d="M184.93,234.25c5.44-2.37,11.22,8.24,4.86,7.25-8.14-1.28-4,4.85-4,4.85C181.18,244.71,179.42,236.65,184.93,234.25Z"/><path id="large-splash" class="cls-4" d="M194.5,249.66c-.5,6.22-4.21,11.51-9.29,15.12a17.92,17.92,0,0,1-17.64,1.92c-5.39-2.3-12-7-12.32-16.41-.43-15.88,13.36-12.65,20.77-3.57S194.5,249.66,194.5,249.66Z"/><path id="brim" class="cls-5" d="M151.73,227.08a99.3,99.3,0,0,0,39.75.7"/><circle id="handle" class="cls-6" cx="210.74" cy="240.12" r="9.58"/></g><text class="cls-7" transform="translate(48.63 236.02)">B</text></g></g></g></g></svg>