<svg xmlns="http://www.w3.org/2000/svg" viewBox="0 0 277.35 485.6"><defs><style>.cls-1,.cls-3,.cls-5,.cls-6{fill:none;}.cls-2{fill:#f7cf91;}.cls-3,.cls-5,.cls-6{stroke:#fff;stroke-miterlimit:10;}.cls-3,.cls-6{stroke-width:6.31px;}.cls-4,.cls-7{fill:#fff;}.cls-5,.cls-6{stroke-linecap:round;}.cls-5{stroke-width:2.1px;}.cls-7{font-size:37.96px;font-family:TitanOne, Titan One;}</style></defs><g id="Layer_2" data-name="Layer 2"><g id="Layer_1-2" data-name="Layer 1"><g id="DownloadPhone"><rect class="cls-1" width="277.35" height="485.6" rx="31.84"/><g id="a"><rect class="cls-2" x="38.91" y="311.35" width="199.53" height="94.78" rx="12"/><g id="Logo"><path id="cup" class="cls-3" d="M144.13,339.62c-8.6-11,68.79-11.16,60.06-.72-4.06,4.85-3.55,22.31-3.55,22.31a26,26,0,0,1-26,26h0a26,26,0,0,1-26-26h0S148,344.6,144.13,339.62Z"/><path id="small-splash" class="cls-4" d="M184.93,347.39c5.44-2.37,11.22,8.24,4.86,7.25-8.14-1.27-4,4.85-4,4.85C181.18,357.85,179.42,349.79,184.93,347.39Z"/><path id="large-splash" class="cls-4" d="M194.5,362.81c-.5,6.21-4.21,11.51-9.29,15.11a17.9,17.9,0,0,1-17.64,1.92c-5.39-2.29-12-7-12.32-16.4-.43-15.89,13.36-12.66,20.77-3.58S194.5,362.81,194.5,362.81Z"/><path id="brim" class="cls-5" d="M151.73,340.22a99.3,99.3,0,0,0,39.75.7"/><circle id="handle" class="cls-6" cx="210.74" cy="353.27" r="9.58"/></g><text class="cls-7" transform="translate(48.63 349.16)">C</text></g></g></g></g></svg>