<svg xmlns="http://www.w3.org/2000/svg" viewBox="0 0 47.67 127.45"><defs><style>.cls-1{isolation:isolate;}.cls-2{fill:#64b082;}</style></defs><g id="Layer_2" data-name="Layer 2"><g id="Layer_1-2" data-name="Layer 1"><g id="_" data-name=" " class="cls-1"><g class="cls-1"><path class="cls-2" d="M25.16,127A43.67,43.67,0,0,1,14,125.82a20.35,20.35,0,0,1-6.51-2.74c-1.44-1-2.15-2-2.15-3a21.8,21.8,0,0,1,.52-3.48Q6.36,114,7.25,111a19.3,19.3,0,0,1,1.93-4.59,20.14,20.14,0,0,0,6.29,3,30.4,30.4,0,0,0,8.81,1.18,11.93,11.93,0,0,0,7.25-2.07q2.8-2.07,2.81-6.66a12.31,12.31,0,0,0-1.33-6,42.51,42.51,0,0,0-4.89-6.59L11.55,70.9a25,25,0,0,1-5-8.36,24.09,24.09,0,0,1-1.33-7.48q0-10.06,6.59-15.32t18.72-5.25a72.27,72.27,0,0,1,13.4,1,21,21,0,0,1,6.88,2.3c1.38.88,2.08,1.72,2.08,2.51a24.35,24.35,0,0,1-.82,5,14.83,14.83,0,0,1-3.18,6.22,20,20,0,0,0-5-1.63A36.3,36.3,0,0,0,35.67,49a27.83,27.83,0,0,0-8.73,1.11,4.39,4.39,0,0,0-3.26,4.51,11.72,11.72,0,0,0,1,5,25.57,25.57,0,0,0,3.92,5.48L46,84.08a25.74,25.74,0,0,1,5.1,8.07A26.8,26.8,0,0,1,52.85,102a32.59,32.59,0,0,1-2.3,12.14,18.84,18.84,0,0,1-8.29,9.32Q36.26,127,25.16,127Zm-4.88,17V122.27h15.1V138a4.75,4.75,0,0,1-3.85,5A46.14,46.14,0,0,1,20.28,144Zm3-99.92V22.94a5,5,0,0,1,3.92-5.18,40.72,40.72,0,0,1,11.18-1.18V45Z" transform="translate(-5.18 -16.58)"/></g></g></g></g></svg>