<svg xmlns="http://www.w3.org/2000/svg" viewBox="0 0 46.33 88.08"><defs><style>.cls-1{isolation:isolate;}.cls-2{fill:#64b082;}</style></defs><g id="Layer_2" data-name="Layer 2"><g id="Layer_1-2" data-name="Layer 1"><g id="_2" data-name=" 2" class="cls-1"><g class="cls-1"><path class="cls-2" d="M2.22,85.11q0-7.39.37-10.8T5.18,70.9h37.3q0,7.26-.37,10.74C41.87,84,41,85.11,39.52,85.11Zm9.33,40.71q-.6-6.81-1-15.1T9.84,94.07q-.21-8.35-.22-15a96.61,96.61,0,0,1,1.56-18.72,39.84,39.84,0,0,1,4.58-12.8,19.4,19.4,0,0,1,7.55-7.41,22.26,22.26,0,0,1,10.44-2.36,29.63,29.63,0,0,1,7,.81,13,13,0,0,1,5.55,2.74,6.85,6.85,0,0,1,2.22,5.47,23.17,23.17,0,0,1-.44,4.74,43.19,43.19,0,0,1-1.48,5A17.48,17.48,0,0,0,42.48,55,19.79,19.79,0,0,0,38,54.47a11,11,0,0,0-4.81,1A9.19,9.19,0,0,0,29.53,59a20.42,20.42,0,0,0-2.44,6.66,53.65,53.65,0,0,0-.89,10.73q0,11.25.22,18.58t.82,14.58l18.5,1.18a18.53,18.53,0,0,1,1,4,30.67,30.67,0,0,1,.22,3.55,10,10,0,0,1-.74,4.07,5.28,5.28,0,0,1-2.29,2.59,7.87,7.87,0,0,1-3.92.89Z" transform="translate(-2.22 -37.75)"/></g></g></g></g></svg>