<svg xmlns="http://www.w3.org/2000/svg" viewBox="0 0 277.35 485.6"><defs><style>.cls-1,.cls-2,.cls-4,.cls-5,.cls-6{fill:none;}.cls-2,.cls-4,.cls-5{stroke:#eee;stroke-miterlimit:10;}.cls-2,.cls-5{stroke-width:9.05px;}.cls-3{fill:#eee;}.cls-4,.cls-5,.cls-6{stroke-linecap:round;}.cls-4{stroke-width:3.02px;}.cls-6{stroke:#fff;stroke-width:7.91px;}</style></defs><g id="Layer_2" data-name="Layer 2"><g id="Layer_1-2" data-name="Layer 1"><g id="DownloadPhone"><rect class="cls-1" width="277.35" height="485.6" rx="31.84"/><g id="Logo"><path id="cup" class="cls-2" d="M90.05,97.63c-12.33-15.81,98.65-16,86.12-1-5.82,7-5.08,32-5.08,32a37.3,37.3,0,0,1-37.29,37.29h0a37.29,37.29,0,0,1-37.29-37.29h0S95.62,104.78,90.05,97.63Z"/><path id="small-splash" class="cls-3" d="M148.55,108.78c7.8-3.4,16.1,11.81,7,10.39-11.66-1.82-5.7,7-5.7,7C143.18,123.77,140.66,112.22,148.55,108.78Z"/><path id="large-splash" class="cls-3" d="M162.28,130.88c-.72,8.92-6,16.51-13.32,21.68a25.67,25.67,0,0,1-25.3,2.75c-7.73-3.29-17.28-10.05-17.66-23.52-.62-22.79,19.15-18.16,29.79-5.13S162.28,130.88,162.28,130.88Z"/><path id="brim" class="cls-4" d="M101,98.5c20.73,4.92,42.37,3.81,57,1"/><circle id="handle" class="cls-5" cx="185.58" cy="117.2" r="13.74"/></g><rect class="cls-3" x="64.07" y="191.91" width="149.21" height="149.21" rx="12"/><rect class="cls-6" x="77.54" y="205.38" width="122.26" height="122.26" rx="12"/><rect class="cls-3" x="64.07" y="356.63" width="149.6" height="49.03" rx="12"/></g></g></g></svg>